<svg width="1200" height="1200" viewBox="0 0 1200 1200" fill="none" xmlns="http://www.w3.org/2000/svg">
<path d="M0 16C0 7.16343 7.16344 0 16 0H1184C1192.84 0 1200 7.16344 1200 16V1184C1200 1192.84 1192.84 1200 1184 1200H16C7.16343 1200 0 1192.84 0 1184V16Z" fill="#2188FF"/>
<path d="M0 16C0 7.16343 7.16344 0 16 0H1184C1192.84 0 1200 7.16344 1200 16V1184C1200 1192.84 1192.84 1200 1184 1200H16C7.16343 1200 0 1192.84 0 1184V16Z" fill="url(#paint0_linear)"/>
<path fill-rule="evenodd" clip-rule="evenodd" d="M552.043 548.677C544.431 534.63 537.013 522.949 529.294 513.388C531.913 510.721 534.137 508.49 535.473 507.227C557.625 486.276 579.457 477.443 615.774 477.443C681.792 477.443 738.94 530.411 738.94 599.754C738.94 669.096 681.792 722.064 615.774 722.064C557.219 722.064 532.344 691.816 494.416 608.119C463.063 538.928 446.027 518.213 410.498 518.213C364.292 518.213 328.387 556.294 328.387 599.754C328.387 643.401 364.002 681.294 410.498 681.294C431.915 681.294 457.512 672.833 479.867 660.854C487.81 674.419 495.674 685.431 504.038 694.176C475.247 710.463 441.517 722.064 410.498 722.064C340.671 722.064 287.332 665.313 287.332 599.754C287.332 534.355 340.992 477.443 410.498 477.443C469.053 477.443 493.928 507.691 531.856 591.388C563.209 660.579 580.245 681.294 615.774 681.294C659.726 681.294 697.885 645.927 697.885 599.754C697.885 553.581 659.726 518.213 615.774 518.213C590.094 518.213 578.372 522.956 563.787 536.75C561.858 538.574 557.06 543.498 552.043 548.677V548.677Z" fill="white" stroke="white" stroke-width="8" stroke-miterlimit="1.41421"/>
<path fill-rule="evenodd" clip-rule="evenodd" d="M133.838 599.754L275.234 741.6L247.815 769.107L79 599.754L247.815 430.401L275.234 457.907L133.838 599.754Z" fill="white" stroke="white" stroke-width="8" stroke-miterlimit="1.41421"/>
<path fill-rule="evenodd" clip-rule="evenodd" d="M1067.16 599.754L925.766 457.907L953.185 430.401L1122 599.754L953.185 769.107L925.766 741.6L1067.16 599.754Z" fill="white" stroke="white" stroke-width="8" stroke-miterlimit="1.41421"/>
<path fill-rule="evenodd" clip-rule="evenodd" d="M879.362 411.584L913.072 423.853L780.561 787.924L746.851 775.654L879.362 411.584Z" fill="white" stroke="white" stroke-width="8" stroke-miterlimit="1.41421"/>
<defs>
<linearGradient id="paint0_linear" x1="600" y1="0" x2="600" y2="1200" gradientUnits="userSpaceOnUse">
<stop stop-color="#21BBFF"/>
<stop offset="0.276042" stop-color="#21A7FF"/>
<stop offset="1" stop-color="#2188FF"/>
</linearGradient>
</defs>
</svg>
