<?xml version="1.0" standalone="no"?>
<!DOCTYPE svg PUBLIC "-//W3C//DTD SVG 20010904//EN"
 "http://www.w3.org/TR/2001/REC-SVG-20010904/DTD/svg10.dtd">
<svg version="1.0" xmlns="http://www.w3.org/2000/svg"
 width="700.000000pt" height="700.000000pt" viewBox="0 0 700.000000 700.000000"
 preserveAspectRatio="xMidYMid meet">
<metadata>
Created by potrace 1.11, written by Peter Selinger 2001-2013
</metadata>
<g transform="translate(0.000000,700.000000) scale(0.100000,-0.100000)"
fill="#000000" stroke="none">
<path d="M4987 4283 c-69 -191 -179 -492 -243 -668 -64 -176 -133 -367 -154
-425 -54 -151 -228 -628 -245 -671 -11 -29 -11 -40 -2 -53 17 -24 220 -97 228
-82 4 6 84 225 179 486 94 261 194 536 222 610 27 74 62 171 78 215 16 44 52
143 80 220 28 77 64 176 80 220 16 44 51 141 78 215 65 177 64 174 50 191 -7
9 -56 31 -108 49 -52 18 -100 35 -106 37 -6 2 -64 -143 -137 -344z"/>
<path d="M933 4010 c-274 -275 -498 -505 -498 -510 0 -15 977 -990 1001 -1000
18 -7 35 6 112 83 l92 92 -410 410 c-225 226 -409 413 -407 417 1 4 186 192
410 417 l409 410 -90 90 c-50 50 -97 91 -106 91 -8 0 -239 -225 -513 -500z"/>
<path d="M5455 4420 c-49 -49 -87 -92 -84 -94 2 -3 187 -189 411 -414 l408
-408 -410 -413 c-226 -227 -410 -415 -410 -418 0 -3 39 -45 88 -93 55 -55 94
-86 106 -84 9 1 243 229 517 505 l500 503 -503 503 c-277 277 -510 503 -518
503 -9 0 -56 -40 -105 -90z"/>
<path d="M2249 4225 c-333 -66 -585 -361 -595 -695 -6 -203 63 -389 198 -531
143 -151 316 -228 524 -234 144 -4 306 35 486 118 52 23 90 47 93 58 4 12 -10
39 -42 81 -27 35 -61 84 -76 110 l-27 47 -93 -43 c-122 -58 -212 -80 -317 -80
-104 -1 -174 19 -258 73 -71 47 -140 133 -173 219 -32 82 -32 224 0 304 48
124 148 226 264 270 87 32 243 33 302 1 100 -53 161 -142 306 -440 60 -125
118 -244 128 -263 145 -272 275 -396 461 -440 89 -22 261 -17 355 9 170 47
334 166 428 309 223 338 127 799 -211 1016 -149 96 -268 128 -452 122 -198 -7
-307 -51 -447 -180 -24 -22 -43 -43 -43 -49 0 -5 14 -26 30 -47 17 -21 48 -69
70 -106 22 -37 47 -69 57 -70 9 -2 44 23 79 55 88 83 135 103 254 109 81 4
110 1 168 -17 199 -60 326 -231 325 -436 -2 -251 -213 -450 -467 -441 -152 5
-251 97 -370 341 -24 50 -85 173 -135 275 -49 102 -113 221 -142 265 -68 104
-172 205 -252 245 -116 57 -281 74 -428 45z"/>
</g>
</svg>
